<?xml version="1.0" encoding="UTF-8"?>
<svg version="1.1" xmlns="http://www.w3.org/2000/svg" width="24" height="24">
<path d="M0 0 C3.87511727 0.54984772 5.59576506 2.27555331 8.25 5.0625 C8.95640625 5.79597656 9.6628125 6.52945312 10.390625 7.28515625 C10.92171875 7.85105469 11.4528125 8.41695312 12 9 C10.60807296 12.13010458 8.97357774 14.32336692 6.5625 16.75 C5.96566406 17.36359375 5.36882813 17.9771875 4.75390625 18.609375 C3 20 3 20 0 20 C0 18.02 0 16.04 0 14 C-3.63 14 -7.26 14 -11 14 C-11 11.36 -11 8.72 -11 6 C-7.37 6 -3.74 6 0 6 C0 4.02 0 2.04 0 0 Z " fill="#FFFFFF" transform="translate(12,2)"/>
</svg>
